<svg width="261" height="103" viewBox="0 0 261 103" fill="none" xmlns="http://www.w3.org/2000/svg">
<path d="M18.5461 64.1986V2.03104H41.5897C47.4168 2.03104 51.9784 3.56168 55.2745 6.62296C58.5707 9.62537 60.2187 13.452 60.2187 18.1028C60.2187 21.635 59.4241 24.5785 57.8349 26.9334C56.2457 29.2293 54.3328 30.8188 52.0961 31.7019C54.8036 32.4672 57.2169 34.1156 59.3358 36.647C61.5136 39.1785 62.6025 42.5047 62.6025 46.6256C62.6025 51.8651 60.7485 56.1038 57.0403 59.3417C53.3322 62.5796 48.3585 64.1986 42.1194 64.1986H18.5461ZM42.0311 35.6757H26.3156V57.1341H41.5897C45.5333 57.1341 48.6823 56.1921 51.0366 54.3083C53.391 52.4244 54.5682 49.8047 54.5682 46.449C54.5682 43.1523 53.4204 40.5325 51.1249 38.5898C48.8883 36.647 45.857 35.6757 42.0311 35.6757ZM40.6185 9.09554H26.3156V28.6995H41.1482C44.7387 28.6995 47.4756 27.787 49.3591 25.962C51.3015 24.137 52.2727 21.7822 52.2727 18.8975C52.2727 15.8362 51.2426 13.452 49.1826 11.7447C47.1225 9.9786 44.2678 9.09554 40.6185 9.09554Z" fill="#EB542E"/>
<path d="M109.375 44.2414H76.973V44.418C76.973 48.4212 78.2385 51.7474 80.7695 54.3966C83.3004 57.0458 86.5966 58.3704 90.6579 58.3704C93.4831 58.3704 95.8081 57.7817 97.6327 56.6042C99.5162 55.368 100.693 54.0728 101.164 52.7188H108.845C108.139 55.8389 106.226 58.6942 103.107 61.2845C99.9871 63.8748 95.8081 65.1699 90.5696 65.1699C84.095 65.1699 78.8859 63.08 74.9424 58.9002C70.9988 54.7204 69.027 49.0688 69.027 41.9454C69.027 34.8221 70.9693 29.1705 74.8541 24.9906C78.7388 20.8108 83.7713 18.7209 89.9516 18.7209C95.8964 18.7209 100.605 20.6931 104.078 24.6374C107.609 28.5229 109.375 33.7624 109.375 40.3559V44.2414ZM89.775 25.5205C86.1257 25.5205 83.1533 26.639 80.8578 28.8761C78.6211 31.1132 77.3556 34.0862 77.0613 37.795H101.694C101.517 33.9684 100.37 30.966 98.2508 28.7878C96.1907 26.6096 93.3654 25.5205 89.775 25.5205Z" fill="#EB542E"/>
<path d="M144.768 34.7043C144.768 31.7019 143.826 29.4059 141.943 27.8164C140.118 26.2269 137.705 25.4322 134.703 25.4322C129.347 25.4322 125.933 27.4043 124.462 31.3487H117.134C117.899 27.6987 119.812 24.6963 122.872 22.3415C125.992 19.9278 129.994 18.7209 134.88 18.7209C140.118 18.7209 144.327 20.1632 147.505 23.0479C150.684 25.8737 152.273 29.7592 152.273 34.7043V64.1986H145.121V58.9002C141.766 63.08 136.999 65.1699 130.818 65.1699C126.404 65.1699 122.725 63.9336 119.782 61.4611C116.898 58.9296 115.456 55.6034 115.456 51.4825C115.456 47.1849 117.016 43.8293 120.135 41.4156C123.255 38.943 127.522 37.7067 132.937 37.7067H144.768V34.7043ZM131.79 58.547C135.439 58.547 138.5 57.5167 140.972 55.4563C143.503 53.3958 144.768 50.7172 144.768 47.4204V44.1531H133.379C130.259 44.1531 127.758 44.7712 125.874 46.0075C124.05 47.2438 123.137 49.0393 123.137 51.3942C123.137 53.6901 123.932 55.4563 125.521 56.6925C127.11 57.9288 129.2 58.547 131.79 58.547Z" fill="#EB542E"/>
<path d="M181.784 58.2821C185.139 58.2821 187.728 57.4579 189.553 55.8095C191.378 54.1022 192.584 52.1006 193.173 49.8047H200.766C200.236 53.9845 198.235 57.605 194.762 60.6663C191.348 63.6687 186.993 65.1699 181.695 65.1699C175.397 65.1699 170.306 63.0211 166.421 58.7236C162.595 54.3671 160.682 48.7744 160.682 41.9454C160.682 35.1753 162.595 29.612 166.421 25.2556C170.306 20.8991 175.397 18.7209 181.695 18.7209C187.169 18.7209 191.554 20.2515 194.85 23.3128C198.147 26.3741 200.118 29.9063 200.766 33.9096H193.173C192.467 31.6725 191.172 29.7297 189.288 28.0814C187.405 26.433 184.874 25.6088 181.695 25.6088C177.693 25.6088 174.485 27.11 172.072 30.1124C169.658 33.1148 168.452 37.0591 168.452 41.9454C168.452 46.8317 169.658 50.776 172.072 53.7784C174.544 56.7808 177.781 58.2821 181.784 58.2821Z" fill="#EB542E"/>
<path d="M229.995 18.7209C234.704 18.7209 238.647 20.1927 241.826 23.1362C245.004 26.0797 246.593 30.4362 246.593 36.2055V64.1986H239.001V37.2652C239.001 33.3797 238.059 30.4656 236.175 28.5229C234.292 26.5801 231.761 25.6088 228.582 25.6088C225.345 25.6088 222.549 26.639 220.195 28.6995C217.899 30.76 216.752 33.8507 216.752 37.9716V64.1986H209.159V0H216.752V24.5491C219.812 20.6636 224.227 18.7209 229.995 18.7209Z" fill="#EB542E"/>
<path d="M215.56 95.1046C223.479 87.1306 236.376 87.1306 244.295 95.1046L252.189 103H261L248.715 90.7129C238.359 80.2856 221.496 80.2856 211.14 90.7129C203.22 98.6869 190.324 98.6869 182.405 90.7129C172.049 80.2856 155.185 80.2856 144.829 90.7129C136.91 98.6869 124.014 98.6869 116.095 90.7129C105.739 80.2856 88.8748 80.2856 78.519 90.7129C70.5997 98.6869 57.7035 98.6869 49.7842 90.7129C39.4297 80.2869 22.5686 80.2856 12.2125 90.7091L12.2087 90.7129L0 102.924H8.81125L16.6254 95.1083L16.6291 95.1046C24.5484 87.1306 37.4446 87.1306 45.3639 95.1046C55.7197 105.532 72.5836 105.532 82.9394 95.1046C90.8587 87.1306 103.755 87.1306 111.674 95.1046C122.03 105.532 138.894 105.532 149.25 95.1046C157.169 87.1306 170.065 87.1306 177.985 95.1046C188.34 105.532 205.204 105.532 215.56 95.1046Z" fill="#EB542E"/>
</svg>
